G75*
%MOIN*%
%OFA0B0*%
%FSLAX25Y25*%
%IPPOS*%
%LPD*%
%AMOC8*
5,1,8,0,0,1.08239X$1,22.5*
%
%ADD10C,0.00800*%
%ADD11C,0.00875*%
%ADD12R,0.05000X0.05000*%
%ADD13R,0.01370X0.05500*%
%ADD14C,0.00787*%
%ADD15C,0.02756*%
%ADD16C,0.03740*%
%ADD17R,0.03937X0.01181*%
%ADD18R,0.05118X0.06496*%
%ADD19C,0.00750*%
%ADD20C,0.00000*%
D10*
X0101036Y0048333D02*
X0101036Y0116333D01*
X0211036Y0116333D01*
X0211036Y0048333D01*
X0101036Y0048333D01*
D11*
X0160723Y0060646D02*
X0163349Y0060646D01*
X0163349Y0058020D01*
X0160723Y0058020D01*
X0160723Y0060646D01*
X0160723Y0058851D02*
X0163349Y0058851D01*
X0163349Y0059682D02*
X0160723Y0059682D01*
X0160723Y0060513D02*
X0163349Y0060513D01*
X0166723Y0060646D02*
X0169349Y0060646D01*
X0169349Y0058020D01*
X0166723Y0058020D01*
X0166723Y0060646D01*
X0166723Y0058851D02*
X0169349Y0058851D01*
X0169349Y0059682D02*
X0166723Y0059682D01*
X0166723Y0060513D02*
X0169349Y0060513D01*
X0179223Y0090020D02*
X0179223Y0092646D01*
X0181849Y0092646D01*
X0181849Y0090020D01*
X0179223Y0090020D01*
X0179223Y0090851D02*
X0181849Y0090851D01*
X0181849Y0091682D02*
X0179223Y0091682D01*
X0179223Y0092513D02*
X0181849Y0092513D01*
X0179223Y0096020D02*
X0179223Y0098646D01*
X0181849Y0098646D01*
X0181849Y0096020D01*
X0179223Y0096020D01*
X0179223Y0096851D02*
X0181849Y0096851D01*
X0181849Y0097682D02*
X0179223Y0097682D01*
X0179223Y0098513D02*
X0181849Y0098513D01*
X0176723Y0105520D02*
X0176723Y0108146D01*
X0179349Y0108146D01*
X0179349Y0105520D01*
X0176723Y0105520D01*
X0176723Y0106351D02*
X0179349Y0106351D01*
X0179349Y0107182D02*
X0176723Y0107182D01*
X0176723Y0108013D02*
X0179349Y0108013D01*
X0176723Y0111520D02*
X0176723Y0114146D01*
X0179349Y0114146D01*
X0179349Y0111520D01*
X0176723Y0111520D01*
X0176723Y0112351D02*
X0179349Y0112351D01*
X0179349Y0113182D02*
X0176723Y0113182D01*
X0176723Y0114013D02*
X0179349Y0114013D01*
D12*
X0182036Y0072833D03*
X0182036Y0062833D03*
D13*
X0167670Y0067940D03*
X0165111Y0067940D03*
X0162552Y0067940D03*
X0159993Y0067940D03*
X0157434Y0067940D03*
X0154874Y0067940D03*
X0152315Y0067940D03*
X0149756Y0067940D03*
X0147197Y0067940D03*
X0144638Y0067940D03*
X0142079Y0067940D03*
X0139520Y0067940D03*
X0136961Y0067940D03*
X0134402Y0067940D03*
X0134402Y0096727D03*
X0136961Y0096727D03*
X0139520Y0096727D03*
X0142079Y0096727D03*
X0144638Y0096727D03*
X0147197Y0096727D03*
X0149756Y0096727D03*
X0152315Y0096727D03*
X0154874Y0096727D03*
X0157434Y0096727D03*
X0159993Y0096727D03*
X0162552Y0096727D03*
X0165111Y0096727D03*
X0167670Y0096727D03*
D14*
X0189460Y0088845D02*
X0189460Y0088057D01*
X0189460Y0088845D02*
X0194580Y0088845D01*
X0194580Y0088057D01*
X0189460Y0088057D01*
X0189460Y0088805D02*
X0194580Y0088805D01*
X0189460Y0086286D02*
X0189460Y0085498D01*
X0189460Y0086286D02*
X0194580Y0086286D01*
X0194580Y0085498D01*
X0189460Y0085498D01*
X0189460Y0086246D02*
X0194580Y0086246D01*
X0189460Y0083727D02*
X0189460Y0082939D01*
X0189460Y0083727D02*
X0194580Y0083727D01*
X0194580Y0082939D01*
X0189460Y0082939D01*
X0189460Y0083687D02*
X0194580Y0083687D01*
X0189460Y0081168D02*
X0189460Y0080380D01*
X0189460Y0081168D02*
X0194580Y0081168D01*
X0194580Y0080380D01*
X0189460Y0080380D01*
X0189460Y0081128D02*
X0194580Y0081128D01*
X0189460Y0078609D02*
X0189460Y0077821D01*
X0189460Y0078609D02*
X0194580Y0078609D01*
X0194580Y0077821D01*
X0189460Y0077821D01*
X0189460Y0078569D02*
X0194580Y0078569D01*
D15*
X0194095Y0071719D02*
X0191339Y0071719D01*
X0194095Y0071719D02*
X0194095Y0068177D01*
X0191339Y0068177D01*
X0191339Y0071719D01*
X0191339Y0070795D02*
X0194095Y0070795D01*
X0194095Y0098490D02*
X0191339Y0098490D01*
X0194095Y0098490D02*
X0194095Y0094948D01*
X0191339Y0094948D01*
X0191339Y0098490D01*
X0191339Y0097566D02*
X0194095Y0097566D01*
D16*
X0203437Y0089928D02*
X0203437Y0086188D01*
X0199697Y0086188D01*
X0199697Y0089928D01*
X0203437Y0089928D01*
X0203437Y0089741D02*
X0199697Y0089741D01*
X0203437Y0080479D02*
X0203437Y0076739D01*
X0199697Y0076739D01*
X0199697Y0080479D01*
X0203437Y0080479D01*
X0203437Y0080292D02*
X0199697Y0080292D01*
D17*
X0118516Y0080381D03*
X0118516Y0082349D03*
X0118516Y0084318D03*
X0118516Y0086286D03*
X0118516Y0088255D03*
X0118516Y0078412D03*
D18*
X0111036Y0069455D03*
X0111036Y0097211D03*
D19*
X0199411Y0109458D02*
X0201661Y0109458D01*
X0199411Y0109458D02*
X0199411Y0112208D01*
X0201661Y0112208D01*
X0201661Y0109458D01*
X0201661Y0110170D02*
X0199411Y0110170D01*
X0199411Y0110882D02*
X0201661Y0110882D01*
X0201661Y0111594D02*
X0199411Y0111594D01*
X0205411Y0109458D02*
X0207661Y0109458D01*
X0205411Y0109458D02*
X0205411Y0112208D01*
X0207661Y0112208D01*
X0207661Y0109458D01*
X0207661Y0110170D02*
X0205411Y0110170D01*
X0205411Y0110882D02*
X0207661Y0110882D01*
X0207661Y0111594D02*
X0205411Y0111594D01*
X0204911Y0053458D02*
X0207161Y0053458D01*
X0204911Y0053458D02*
X0204911Y0056208D01*
X0207161Y0056208D01*
X0207161Y0053458D01*
X0207161Y0054170D02*
X0204911Y0054170D01*
X0204911Y0054882D02*
X0207161Y0054882D01*
X0207161Y0055594D02*
X0204911Y0055594D01*
X0201161Y0053458D02*
X0198911Y0053458D01*
X0198911Y0056208D01*
X0201161Y0056208D01*
X0201161Y0053458D01*
X0201161Y0054170D02*
X0198911Y0054170D01*
X0198911Y0054882D02*
X0201161Y0054882D01*
X0201161Y0055594D02*
X0198911Y0055594D01*
D20*
X0104795Y0078097D02*
X0104797Y0078181D01*
X0104803Y0078264D01*
X0104813Y0078347D01*
X0104827Y0078430D01*
X0104844Y0078512D01*
X0104866Y0078593D01*
X0104891Y0078672D01*
X0104920Y0078751D01*
X0104953Y0078828D01*
X0104989Y0078903D01*
X0105029Y0078977D01*
X0105072Y0079049D01*
X0105119Y0079118D01*
X0105169Y0079185D01*
X0105222Y0079250D01*
X0105278Y0079312D01*
X0105336Y0079372D01*
X0105398Y0079429D01*
X0105462Y0079482D01*
X0105529Y0079533D01*
X0105598Y0079580D01*
X0105669Y0079625D01*
X0105742Y0079665D01*
X0105817Y0079702D01*
X0105894Y0079736D01*
X0105972Y0079766D01*
X0106051Y0079792D01*
X0106132Y0079815D01*
X0106214Y0079833D01*
X0106296Y0079848D01*
X0106379Y0079859D01*
X0106462Y0079866D01*
X0106546Y0079869D01*
X0106630Y0079868D01*
X0106713Y0079863D01*
X0106797Y0079854D01*
X0106879Y0079841D01*
X0106961Y0079825D01*
X0107042Y0079804D01*
X0107123Y0079780D01*
X0107201Y0079752D01*
X0107279Y0079720D01*
X0107355Y0079684D01*
X0107429Y0079645D01*
X0107501Y0079603D01*
X0107571Y0079557D01*
X0107639Y0079508D01*
X0107704Y0079456D01*
X0107767Y0079401D01*
X0107827Y0079343D01*
X0107885Y0079282D01*
X0107939Y0079218D01*
X0107991Y0079152D01*
X0108039Y0079084D01*
X0108084Y0079013D01*
X0108125Y0078940D01*
X0108164Y0078866D01*
X0108198Y0078790D01*
X0108229Y0078712D01*
X0108256Y0078633D01*
X0108280Y0078552D01*
X0108299Y0078471D01*
X0108315Y0078389D01*
X0108327Y0078306D01*
X0108335Y0078222D01*
X0108339Y0078139D01*
X0108339Y0078055D01*
X0108335Y0077972D01*
X0108327Y0077888D01*
X0108315Y0077805D01*
X0108299Y0077723D01*
X0108280Y0077642D01*
X0108256Y0077561D01*
X0108229Y0077482D01*
X0108198Y0077404D01*
X0108164Y0077328D01*
X0108125Y0077254D01*
X0108084Y0077181D01*
X0108039Y0077110D01*
X0107991Y0077042D01*
X0107939Y0076976D01*
X0107885Y0076912D01*
X0107827Y0076851D01*
X0107767Y0076793D01*
X0107704Y0076738D01*
X0107639Y0076686D01*
X0107571Y0076637D01*
X0107501Y0076591D01*
X0107429Y0076549D01*
X0107355Y0076510D01*
X0107279Y0076474D01*
X0107201Y0076442D01*
X0107123Y0076414D01*
X0107042Y0076390D01*
X0106961Y0076369D01*
X0106879Y0076353D01*
X0106797Y0076340D01*
X0106713Y0076331D01*
X0106630Y0076326D01*
X0106546Y0076325D01*
X0106462Y0076328D01*
X0106379Y0076335D01*
X0106296Y0076346D01*
X0106214Y0076361D01*
X0106132Y0076379D01*
X0106051Y0076402D01*
X0105972Y0076428D01*
X0105894Y0076458D01*
X0105817Y0076492D01*
X0105742Y0076529D01*
X0105669Y0076569D01*
X0105598Y0076614D01*
X0105529Y0076661D01*
X0105462Y0076712D01*
X0105398Y0076765D01*
X0105336Y0076822D01*
X0105278Y0076882D01*
X0105222Y0076944D01*
X0105169Y0077009D01*
X0105119Y0077076D01*
X0105072Y0077145D01*
X0105029Y0077217D01*
X0104989Y0077291D01*
X0104953Y0077366D01*
X0104920Y0077443D01*
X0104891Y0077522D01*
X0104866Y0077601D01*
X0104844Y0077682D01*
X0104827Y0077764D01*
X0104813Y0077847D01*
X0104803Y0077930D01*
X0104797Y0078013D01*
X0104795Y0078097D01*
X0104795Y0089908D02*
X0104797Y0089992D01*
X0104803Y0090075D01*
X0104813Y0090158D01*
X0104827Y0090241D01*
X0104844Y0090323D01*
X0104866Y0090404D01*
X0104891Y0090483D01*
X0104920Y0090562D01*
X0104953Y0090639D01*
X0104989Y0090714D01*
X0105029Y0090788D01*
X0105072Y0090860D01*
X0105119Y0090929D01*
X0105169Y0090996D01*
X0105222Y0091061D01*
X0105278Y0091123D01*
X0105336Y0091183D01*
X0105398Y0091240D01*
X0105462Y0091293D01*
X0105529Y0091344D01*
X0105598Y0091391D01*
X0105669Y0091436D01*
X0105742Y0091476D01*
X0105817Y0091513D01*
X0105894Y0091547D01*
X0105972Y0091577D01*
X0106051Y0091603D01*
X0106132Y0091626D01*
X0106214Y0091644D01*
X0106296Y0091659D01*
X0106379Y0091670D01*
X0106462Y0091677D01*
X0106546Y0091680D01*
X0106630Y0091679D01*
X0106713Y0091674D01*
X0106797Y0091665D01*
X0106879Y0091652D01*
X0106961Y0091636D01*
X0107042Y0091615D01*
X0107123Y0091591D01*
X0107201Y0091563D01*
X0107279Y0091531D01*
X0107355Y0091495D01*
X0107429Y0091456D01*
X0107501Y0091414D01*
X0107571Y0091368D01*
X0107639Y0091319D01*
X0107704Y0091267D01*
X0107767Y0091212D01*
X0107827Y0091154D01*
X0107885Y0091093D01*
X0107939Y0091029D01*
X0107991Y0090963D01*
X0108039Y0090895D01*
X0108084Y0090824D01*
X0108125Y0090751D01*
X0108164Y0090677D01*
X0108198Y0090601D01*
X0108229Y0090523D01*
X0108256Y0090444D01*
X0108280Y0090363D01*
X0108299Y0090282D01*
X0108315Y0090200D01*
X0108327Y0090117D01*
X0108335Y0090033D01*
X0108339Y0089950D01*
X0108339Y0089866D01*
X0108335Y0089783D01*
X0108327Y0089699D01*
X0108315Y0089616D01*
X0108299Y0089534D01*
X0108280Y0089453D01*
X0108256Y0089372D01*
X0108229Y0089293D01*
X0108198Y0089215D01*
X0108164Y0089139D01*
X0108125Y0089065D01*
X0108084Y0088992D01*
X0108039Y0088921D01*
X0107991Y0088853D01*
X0107939Y0088787D01*
X0107885Y0088723D01*
X0107827Y0088662D01*
X0107767Y0088604D01*
X0107704Y0088549D01*
X0107639Y0088497D01*
X0107571Y0088448D01*
X0107501Y0088402D01*
X0107429Y0088360D01*
X0107355Y0088321D01*
X0107279Y0088285D01*
X0107201Y0088253D01*
X0107123Y0088225D01*
X0107042Y0088201D01*
X0106961Y0088180D01*
X0106879Y0088164D01*
X0106797Y0088151D01*
X0106713Y0088142D01*
X0106630Y0088137D01*
X0106546Y0088136D01*
X0106462Y0088139D01*
X0106379Y0088146D01*
X0106296Y0088157D01*
X0106214Y0088172D01*
X0106132Y0088190D01*
X0106051Y0088213D01*
X0105972Y0088239D01*
X0105894Y0088269D01*
X0105817Y0088303D01*
X0105742Y0088340D01*
X0105669Y0088380D01*
X0105598Y0088425D01*
X0105529Y0088472D01*
X0105462Y0088523D01*
X0105398Y0088576D01*
X0105336Y0088633D01*
X0105278Y0088693D01*
X0105222Y0088755D01*
X0105169Y0088820D01*
X0105119Y0088887D01*
X0105072Y0088956D01*
X0105029Y0089028D01*
X0104989Y0089102D01*
X0104953Y0089177D01*
X0104920Y0089254D01*
X0104891Y0089333D01*
X0104866Y0089412D01*
X0104844Y0089493D01*
X0104827Y0089575D01*
X0104813Y0089658D01*
X0104803Y0089741D01*
X0104797Y0089824D01*
X0104795Y0089908D01*
M02*
