G75*
%MOIN*%
%OFA0B0*%
%FSLAX25Y25*%
%IPPOS*%
%LPD*%
%AMOC8*
5,1,8,0,0,1.08239X$1,22.5*
%
%ADD10C,0.00800*%
%ADD11C,0.00600*%
%ADD12C,0.00875*%
%ADD13R,0.05000X0.05000*%
%ADD14R,0.01370X0.05500*%
%ADD15C,0.03937*%
%ADD16C,0.04000*%
%ADD17C,0.00787*%
%ADD18C,0.02756*%
%ADD19C,0.03740*%
%ADD20R,0.03937X0.01181*%
%ADD21R,0.05118X0.06496*%
%ADD22C,0.00750*%
%ADD23C,0.00000*%
%ADD24C,0.01000*%
%ADD25C,0.02400*%
%ADD26C,0.02578*%
%ADD27C,0.01200*%
%ADD28C,0.03200*%
D10*
X0101036Y0048333D02*
X0101036Y0116333D01*
X0211036Y0116333D01*
X0211036Y0048333D01*
X0101036Y0048333D01*
X0162036Y0059333D02*
X0162236Y0059133D01*
X0163036Y0059133D01*
X0159993Y0067940D02*
X0159836Y0068333D01*
X0159836Y0070733D01*
X0157836Y0072733D01*
X0157836Y0073533D01*
X0160406Y0079829D02*
X0168280Y0071955D01*
X0172217Y0071955D01*
X0181836Y0073133D02*
X0182036Y0072833D01*
X0182236Y0073133D01*
X0182736Y0069033D02*
X0186236Y0065533D01*
X0194236Y0065533D01*
X0204636Y0055133D01*
X0205836Y0055133D01*
X0206036Y0054833D01*
X0200036Y0054833D02*
X0199836Y0055133D01*
X0191836Y0077933D02*
X0192020Y0078215D01*
X0191986Y0080740D02*
X0192020Y0080774D01*
X0191986Y0080740D02*
X0178230Y0080740D01*
X0165436Y0093533D01*
X0165436Y0096333D01*
X0165111Y0096727D01*
X0167670Y0096727D02*
X0167836Y0096333D01*
X0170236Y0096333D01*
X0183036Y0083533D01*
X0191836Y0083533D01*
X0192020Y0083333D01*
X0170636Y0078733D02*
X0170436Y0078533D01*
X0160406Y0079829D02*
X0153266Y0079829D01*
X0147436Y0085659D01*
X0147436Y0096333D01*
X0147197Y0096727D01*
X0149756Y0096727D02*
X0149836Y0096733D01*
X0149836Y0090399D01*
X0152532Y0087703D01*
X0155036Y0093933D02*
X0155036Y0096333D01*
X0177436Y0101933D02*
X0182173Y0101933D01*
X0194173Y0113933D01*
X0202236Y0113933D01*
X0205036Y0111133D01*
X0206236Y0111133D01*
X0206536Y0110833D01*
X0200536Y0110833D02*
X0200236Y0110733D01*
X0180636Y0097533D02*
X0180536Y0097333D01*
X0180636Y0091933D02*
X0180536Y0091333D01*
X0180636Y0091533D01*
D11*
X0112814Y0104712D02*
X0112247Y0104145D01*
X0110545Y0104145D01*
X0110545Y0103011D02*
X0110545Y0106414D01*
X0112247Y0106414D01*
X0112814Y0105847D01*
X0112814Y0104712D01*
X0109131Y0104712D02*
X0109131Y0105847D01*
X0108564Y0106414D01*
X0107429Y0106414D01*
X0106862Y0105847D01*
X0106862Y0104712D01*
X0107429Y0104145D01*
X0108564Y0104145D01*
X0109131Y0104712D01*
X0105541Y0104145D02*
X0104974Y0104712D01*
X0104974Y0106981D01*
X0104407Y0106414D02*
X0105541Y0106414D01*
D12*
X0176723Y0105520D02*
X0176723Y0108146D01*
X0179349Y0108146D01*
X0179349Y0105520D01*
X0176723Y0105520D01*
X0176723Y0106351D02*
X0179349Y0106351D01*
X0179349Y0107182D02*
X0176723Y0107182D01*
X0176723Y0108013D02*
X0179349Y0108013D01*
X0176723Y0111520D02*
X0176723Y0114146D01*
X0179349Y0114146D01*
X0179349Y0111520D01*
X0176723Y0111520D01*
X0176723Y0112351D02*
X0179349Y0112351D01*
X0179349Y0113182D02*
X0176723Y0113182D01*
X0176723Y0114013D02*
X0179349Y0114013D01*
X0179223Y0098646D02*
X0179223Y0096020D01*
X0179223Y0098646D02*
X0181849Y0098646D01*
X0181849Y0096020D01*
X0179223Y0096020D01*
X0179223Y0096851D02*
X0181849Y0096851D01*
X0181849Y0097682D02*
X0179223Y0097682D01*
X0179223Y0098513D02*
X0181849Y0098513D01*
X0179223Y0092646D02*
X0179223Y0090020D01*
X0179223Y0092646D02*
X0181849Y0092646D01*
X0181849Y0090020D01*
X0179223Y0090020D01*
X0179223Y0090851D02*
X0181849Y0090851D01*
X0181849Y0091682D02*
X0179223Y0091682D01*
X0179223Y0092513D02*
X0181849Y0092513D01*
X0169349Y0060646D02*
X0166723Y0060646D01*
X0169349Y0060646D02*
X0169349Y0058020D01*
X0166723Y0058020D01*
X0166723Y0060646D01*
X0166723Y0058851D02*
X0169349Y0058851D01*
X0169349Y0059682D02*
X0166723Y0059682D01*
X0166723Y0060513D02*
X0169349Y0060513D01*
X0163349Y0060646D02*
X0160723Y0060646D01*
X0163349Y0060646D02*
X0163349Y0058020D01*
X0160723Y0058020D01*
X0160723Y0060646D01*
X0160723Y0058851D02*
X0163349Y0058851D01*
X0163349Y0059682D02*
X0160723Y0059682D01*
X0160723Y0060513D02*
X0163349Y0060513D01*
D13*
X0182036Y0062833D03*
X0182036Y0072833D03*
D14*
X0167670Y0067940D03*
X0165111Y0067940D03*
X0162552Y0067940D03*
X0159993Y0067940D03*
X0157434Y0067940D03*
X0154874Y0067940D03*
X0152315Y0067940D03*
X0149756Y0067940D03*
X0147197Y0067940D03*
X0144638Y0067940D03*
X0142079Y0067940D03*
X0139520Y0067940D03*
X0136961Y0067940D03*
X0134402Y0067940D03*
X0134402Y0096727D03*
X0136961Y0096727D03*
X0139520Y0096727D03*
X0142079Y0096727D03*
X0144638Y0096727D03*
X0147197Y0096727D03*
X0149756Y0096727D03*
X0152315Y0096727D03*
X0154874Y0096727D03*
X0157434Y0096727D03*
X0159993Y0096727D03*
X0162552Y0096727D03*
X0165111Y0096727D03*
X0167670Y0096727D03*
D15*
X0107036Y0053233D03*
D16*
X0199567Y0070341D02*
X0203567Y0070341D01*
X0203567Y0096325D02*
X0199567Y0096325D01*
D17*
X0189460Y0088845D02*
X0189460Y0088057D01*
X0189460Y0088845D02*
X0194580Y0088845D01*
X0194580Y0088057D01*
X0189460Y0088057D01*
X0189460Y0088805D02*
X0194580Y0088805D01*
X0189460Y0086286D02*
X0189460Y0085498D01*
X0189460Y0086286D02*
X0194580Y0086286D01*
X0194580Y0085498D01*
X0189460Y0085498D01*
X0189460Y0086246D02*
X0194580Y0086246D01*
X0189460Y0083727D02*
X0189460Y0082939D01*
X0189460Y0083727D02*
X0194580Y0083727D01*
X0194580Y0082939D01*
X0189460Y0082939D01*
X0189460Y0083687D02*
X0194580Y0083687D01*
X0189460Y0081168D02*
X0189460Y0080380D01*
X0189460Y0081168D02*
X0194580Y0081168D01*
X0194580Y0080380D01*
X0189460Y0080380D01*
X0189460Y0081128D02*
X0194580Y0081128D01*
X0189460Y0078609D02*
X0189460Y0077821D01*
X0189460Y0078609D02*
X0194580Y0078609D01*
X0194580Y0077821D01*
X0189460Y0077821D01*
X0189460Y0078569D02*
X0194580Y0078569D01*
D18*
X0194095Y0071719D02*
X0191339Y0071719D01*
X0194095Y0071719D02*
X0194095Y0068177D01*
X0191339Y0068177D01*
X0191339Y0071719D01*
X0191339Y0070795D02*
X0194095Y0070795D01*
X0194095Y0098490D02*
X0191339Y0098490D01*
X0194095Y0098490D02*
X0194095Y0094948D01*
X0191339Y0094948D01*
X0191339Y0098490D01*
X0191339Y0097566D02*
X0194095Y0097566D01*
D19*
X0203437Y0089928D02*
X0203437Y0086188D01*
X0199697Y0086188D01*
X0199697Y0089928D01*
X0203437Y0089928D01*
X0203437Y0089741D02*
X0199697Y0089741D01*
X0203437Y0080479D02*
X0203437Y0076739D01*
X0199697Y0076739D01*
X0199697Y0080479D01*
X0203437Y0080479D01*
X0203437Y0080292D02*
X0199697Y0080292D01*
D20*
X0118516Y0080381D03*
X0118516Y0082349D03*
X0118516Y0084318D03*
X0118516Y0086286D03*
X0118516Y0088255D03*
X0118516Y0078412D03*
D21*
X0111036Y0069455D03*
X0111036Y0097211D03*
D22*
X0199411Y0109458D02*
X0201661Y0109458D01*
X0199411Y0109458D02*
X0199411Y0112208D01*
X0201661Y0112208D01*
X0201661Y0109458D01*
X0201661Y0110170D02*
X0199411Y0110170D01*
X0199411Y0110882D02*
X0201661Y0110882D01*
X0201661Y0111594D02*
X0199411Y0111594D01*
X0205411Y0109458D02*
X0207661Y0109458D01*
X0205411Y0109458D02*
X0205411Y0112208D01*
X0207661Y0112208D01*
X0207661Y0109458D01*
X0207661Y0110170D02*
X0205411Y0110170D01*
X0205411Y0110882D02*
X0207661Y0110882D01*
X0207661Y0111594D02*
X0205411Y0111594D01*
X0204911Y0053458D02*
X0207161Y0053458D01*
X0204911Y0053458D02*
X0204911Y0056208D01*
X0207161Y0056208D01*
X0207161Y0053458D01*
X0207161Y0054170D02*
X0204911Y0054170D01*
X0204911Y0054882D02*
X0207161Y0054882D01*
X0207161Y0055594D02*
X0204911Y0055594D01*
X0201161Y0053458D02*
X0198911Y0053458D01*
X0198911Y0056208D01*
X0201161Y0056208D01*
X0201161Y0053458D01*
X0201161Y0054170D02*
X0198911Y0054170D01*
X0198911Y0054882D02*
X0201161Y0054882D01*
X0201161Y0055594D02*
X0198911Y0055594D01*
D23*
X0104795Y0078097D02*
X0104797Y0078181D01*
X0104803Y0078264D01*
X0104813Y0078347D01*
X0104827Y0078430D01*
X0104844Y0078512D01*
X0104866Y0078593D01*
X0104891Y0078672D01*
X0104920Y0078751D01*
X0104953Y0078828D01*
X0104989Y0078903D01*
X0105029Y0078977D01*
X0105072Y0079049D01*
X0105119Y0079118D01*
X0105169Y0079185D01*
X0105222Y0079250D01*
X0105278Y0079312D01*
X0105336Y0079372D01*
X0105398Y0079429D01*
X0105462Y0079482D01*
X0105529Y0079533D01*
X0105598Y0079580D01*
X0105669Y0079625D01*
X0105742Y0079665D01*
X0105817Y0079702D01*
X0105894Y0079736D01*
X0105972Y0079766D01*
X0106051Y0079792D01*
X0106132Y0079815D01*
X0106214Y0079833D01*
X0106296Y0079848D01*
X0106379Y0079859D01*
X0106462Y0079866D01*
X0106546Y0079869D01*
X0106630Y0079868D01*
X0106713Y0079863D01*
X0106797Y0079854D01*
X0106879Y0079841D01*
X0106961Y0079825D01*
X0107042Y0079804D01*
X0107123Y0079780D01*
X0107201Y0079752D01*
X0107279Y0079720D01*
X0107355Y0079684D01*
X0107429Y0079645D01*
X0107501Y0079603D01*
X0107571Y0079557D01*
X0107639Y0079508D01*
X0107704Y0079456D01*
X0107767Y0079401D01*
X0107827Y0079343D01*
X0107885Y0079282D01*
X0107939Y0079218D01*
X0107991Y0079152D01*
X0108039Y0079084D01*
X0108084Y0079013D01*
X0108125Y0078940D01*
X0108164Y0078866D01*
X0108198Y0078790D01*
X0108229Y0078712D01*
X0108256Y0078633D01*
X0108280Y0078552D01*
X0108299Y0078471D01*
X0108315Y0078389D01*
X0108327Y0078306D01*
X0108335Y0078222D01*
X0108339Y0078139D01*
X0108339Y0078055D01*
X0108335Y0077972D01*
X0108327Y0077888D01*
X0108315Y0077805D01*
X0108299Y0077723D01*
X0108280Y0077642D01*
X0108256Y0077561D01*
X0108229Y0077482D01*
X0108198Y0077404D01*
X0108164Y0077328D01*
X0108125Y0077254D01*
X0108084Y0077181D01*
X0108039Y0077110D01*
X0107991Y0077042D01*
X0107939Y0076976D01*
X0107885Y0076912D01*
X0107827Y0076851D01*
X0107767Y0076793D01*
X0107704Y0076738D01*
X0107639Y0076686D01*
X0107571Y0076637D01*
X0107501Y0076591D01*
X0107429Y0076549D01*
X0107355Y0076510D01*
X0107279Y0076474D01*
X0107201Y0076442D01*
X0107123Y0076414D01*
X0107042Y0076390D01*
X0106961Y0076369D01*
X0106879Y0076353D01*
X0106797Y0076340D01*
X0106713Y0076331D01*
X0106630Y0076326D01*
X0106546Y0076325D01*
X0106462Y0076328D01*
X0106379Y0076335D01*
X0106296Y0076346D01*
X0106214Y0076361D01*
X0106132Y0076379D01*
X0106051Y0076402D01*
X0105972Y0076428D01*
X0105894Y0076458D01*
X0105817Y0076492D01*
X0105742Y0076529D01*
X0105669Y0076569D01*
X0105598Y0076614D01*
X0105529Y0076661D01*
X0105462Y0076712D01*
X0105398Y0076765D01*
X0105336Y0076822D01*
X0105278Y0076882D01*
X0105222Y0076944D01*
X0105169Y0077009D01*
X0105119Y0077076D01*
X0105072Y0077145D01*
X0105029Y0077217D01*
X0104989Y0077291D01*
X0104953Y0077366D01*
X0104920Y0077443D01*
X0104891Y0077522D01*
X0104866Y0077601D01*
X0104844Y0077682D01*
X0104827Y0077764D01*
X0104813Y0077847D01*
X0104803Y0077930D01*
X0104797Y0078013D01*
X0104795Y0078097D01*
X0104795Y0089908D02*
X0104797Y0089992D01*
X0104803Y0090075D01*
X0104813Y0090158D01*
X0104827Y0090241D01*
X0104844Y0090323D01*
X0104866Y0090404D01*
X0104891Y0090483D01*
X0104920Y0090562D01*
X0104953Y0090639D01*
X0104989Y0090714D01*
X0105029Y0090788D01*
X0105072Y0090860D01*
X0105119Y0090929D01*
X0105169Y0090996D01*
X0105222Y0091061D01*
X0105278Y0091123D01*
X0105336Y0091183D01*
X0105398Y0091240D01*
X0105462Y0091293D01*
X0105529Y0091344D01*
X0105598Y0091391D01*
X0105669Y0091436D01*
X0105742Y0091476D01*
X0105817Y0091513D01*
X0105894Y0091547D01*
X0105972Y0091577D01*
X0106051Y0091603D01*
X0106132Y0091626D01*
X0106214Y0091644D01*
X0106296Y0091659D01*
X0106379Y0091670D01*
X0106462Y0091677D01*
X0106546Y0091680D01*
X0106630Y0091679D01*
X0106713Y0091674D01*
X0106797Y0091665D01*
X0106879Y0091652D01*
X0106961Y0091636D01*
X0107042Y0091615D01*
X0107123Y0091591D01*
X0107201Y0091563D01*
X0107279Y0091531D01*
X0107355Y0091495D01*
X0107429Y0091456D01*
X0107501Y0091414D01*
X0107571Y0091368D01*
X0107639Y0091319D01*
X0107704Y0091267D01*
X0107767Y0091212D01*
X0107827Y0091154D01*
X0107885Y0091093D01*
X0107939Y0091029D01*
X0107991Y0090963D01*
X0108039Y0090895D01*
X0108084Y0090824D01*
X0108125Y0090751D01*
X0108164Y0090677D01*
X0108198Y0090601D01*
X0108229Y0090523D01*
X0108256Y0090444D01*
X0108280Y0090363D01*
X0108299Y0090282D01*
X0108315Y0090200D01*
X0108327Y0090117D01*
X0108335Y0090033D01*
X0108339Y0089950D01*
X0108339Y0089866D01*
X0108335Y0089783D01*
X0108327Y0089699D01*
X0108315Y0089616D01*
X0108299Y0089534D01*
X0108280Y0089453D01*
X0108256Y0089372D01*
X0108229Y0089293D01*
X0108198Y0089215D01*
X0108164Y0089139D01*
X0108125Y0089065D01*
X0108084Y0088992D01*
X0108039Y0088921D01*
X0107991Y0088853D01*
X0107939Y0088787D01*
X0107885Y0088723D01*
X0107827Y0088662D01*
X0107767Y0088604D01*
X0107704Y0088549D01*
X0107639Y0088497D01*
X0107571Y0088448D01*
X0107501Y0088402D01*
X0107429Y0088360D01*
X0107355Y0088321D01*
X0107279Y0088285D01*
X0107201Y0088253D01*
X0107123Y0088225D01*
X0107042Y0088201D01*
X0106961Y0088180D01*
X0106879Y0088164D01*
X0106797Y0088151D01*
X0106713Y0088142D01*
X0106630Y0088137D01*
X0106546Y0088136D01*
X0106462Y0088139D01*
X0106379Y0088146D01*
X0106296Y0088157D01*
X0106214Y0088172D01*
X0106132Y0088190D01*
X0106051Y0088213D01*
X0105972Y0088239D01*
X0105894Y0088269D01*
X0105817Y0088303D01*
X0105742Y0088340D01*
X0105669Y0088380D01*
X0105598Y0088425D01*
X0105529Y0088472D01*
X0105462Y0088523D01*
X0105398Y0088576D01*
X0105336Y0088633D01*
X0105278Y0088693D01*
X0105222Y0088755D01*
X0105169Y0088820D01*
X0105119Y0088887D01*
X0105072Y0088956D01*
X0105029Y0089028D01*
X0104989Y0089102D01*
X0104953Y0089177D01*
X0104920Y0089254D01*
X0104891Y0089333D01*
X0104866Y0089412D01*
X0104844Y0089493D01*
X0104827Y0089575D01*
X0104813Y0089658D01*
X0104803Y0089741D01*
X0104797Y0089824D01*
X0104795Y0089908D01*
D24*
X0103136Y0089121D02*
X0103624Y0087942D01*
X0104601Y0086965D01*
X0105877Y0086436D01*
X0107258Y0086436D01*
X0108534Y0086965D01*
X0109511Y0087942D01*
X0110039Y0089218D01*
X0110039Y0090599D01*
X0109511Y0091875D01*
X0109122Y0092263D01*
X0114299Y0092263D01*
X0115295Y0093259D01*
X0115295Y0101163D01*
X0114299Y0102159D01*
X0113089Y0102159D01*
X0114247Y0103317D01*
X0114814Y0103884D01*
X0114814Y0106675D01*
X0113642Y0107847D01*
X0113075Y0108414D01*
X0109717Y0108414D01*
X0109554Y0108251D01*
X0109392Y0108414D01*
X0106601Y0108414D01*
X0106485Y0108298D01*
X0106370Y0108414D01*
X0106369Y0108414D01*
X0105802Y0108981D01*
X0104145Y0108981D01*
X0103578Y0108414D01*
X0103136Y0107971D01*
X0103136Y0114233D01*
X0172946Y0114233D01*
X0169346Y0110633D01*
X0167999Y0109286D01*
X0167999Y0101318D01*
X0168140Y0101177D01*
X0161162Y0101177D01*
X0160944Y0100959D01*
X0160875Y0100977D01*
X0159993Y0100977D01*
X0159993Y0096727D01*
X0159993Y0092477D01*
X0160875Y0092477D01*
X0160944Y0092495D01*
X0161162Y0092277D01*
X0163722Y0092277D01*
X0176130Y0079870D01*
X0177360Y0078640D01*
X0187367Y0078640D01*
X0187367Y0076954D01*
X0187486Y0076836D01*
X0186236Y0075586D01*
X0186236Y0076037D01*
X0185240Y0077033D01*
X0178832Y0077033D01*
X0177836Y0076037D01*
X0177836Y0075433D01*
X0176789Y0075433D01*
X0173936Y0078286D01*
X0173936Y0079390D01*
X0173434Y0080603D01*
X0172505Y0081531D01*
X0171292Y0082033D01*
X0170189Y0082033D01*
X0159745Y0092477D01*
X0159993Y0092477D01*
X0159993Y0096727D01*
X0159993Y0096727D01*
X0159993Y0096727D01*
X0159993Y0100977D01*
X0159110Y0100977D01*
X0159041Y0100959D01*
X0158823Y0101177D01*
X0157194Y0101177D01*
X0157194Y0104798D01*
X0155847Y0106145D01*
X0155059Y0106933D01*
X0129308Y0106933D01*
X0128811Y0107430D01*
X0127598Y0107933D01*
X0126285Y0107933D01*
X0125072Y0107430D01*
X0124144Y0106502D01*
X0123641Y0105289D01*
X0123641Y0103976D01*
X0124144Y0102763D01*
X0124641Y0102266D01*
X0124641Y0094917D01*
X0124550Y0094097D01*
X0124641Y0093983D01*
X0124641Y0093837D01*
X0125225Y0093254D01*
X0127791Y0090046D01*
X0127791Y0089900D01*
X0128375Y0089317D01*
X0128890Y0088672D01*
X0129035Y0088656D01*
X0129138Y0088553D01*
X0129964Y0088553D01*
X0130566Y0088486D01*
X0121985Y0088486D01*
X0121985Y0089043D01*
X0121882Y0089424D01*
X0121685Y0089766D01*
X0121406Y0090045D01*
X0121064Y0090243D01*
X0120682Y0090345D01*
X0118516Y0090345D01*
X0116350Y0090345D01*
X0115969Y0090243D01*
X0115627Y0090045D01*
X0115347Y0089766D01*
X0115150Y0089424D01*
X0115048Y0089043D01*
X0115048Y0088255D01*
X0115522Y0088255D01*
X0115521Y0088255D01*
X0115048Y0088255D01*
X0115048Y0087781D01*
X0114848Y0087581D01*
X0114848Y0082252D01*
X0113809Y0081214D01*
X0113048Y0080452D01*
X0113048Y0076372D01*
X0113836Y0075584D01*
X0113836Y0074403D01*
X0107773Y0074403D01*
X0106777Y0073408D01*
X0106777Y0065503D01*
X0107773Y0064507D01*
X0114299Y0064507D01*
X0115295Y0065503D01*
X0115295Y0070963D01*
X0118836Y0067422D01*
X0118836Y0054092D01*
X0118742Y0053973D01*
X0118836Y0053200D01*
X0118836Y0052422D01*
X0118944Y0052314D01*
X0118962Y0052163D01*
X0119574Y0051684D01*
X0120125Y0051133D01*
X0120277Y0051133D01*
X0121170Y0050433D01*
X0109424Y0050433D01*
X0110146Y0051155D01*
X0110704Y0052504D01*
X0110704Y0053963D01*
X0110146Y0055311D01*
X0109114Y0056343D01*
X0107766Y0056902D01*
X0106306Y0056902D01*
X0104958Y0056343D01*
X0103926Y0055311D01*
X0103367Y0053963D01*
X0103367Y0052504D01*
X0103926Y0051155D01*
X0104648Y0050433D01*
X0103136Y0050433D01*
X0103136Y0077310D01*
X0103624Y0076131D01*
X0104601Y0075154D01*
X0105877Y0074625D01*
X0107258Y0074625D01*
X0108534Y0075154D01*
X0109511Y0076131D01*
X0110039Y0077407D01*
X0110039Y0078788D01*
X0109511Y0080064D01*
X0108534Y0081040D01*
X0107258Y0081569D01*
X0105877Y0081569D01*
X0104601Y0081040D01*
X0103624Y0080064D01*
X0103136Y0078885D01*
X0103136Y0089121D01*
X0103136Y0088274D02*
X0103487Y0088274D01*
X0103136Y0087275D02*
X0104291Y0087275D01*
X0103136Y0086277D02*
X0114848Y0086277D01*
X0114848Y0087275D02*
X0108844Y0087275D01*
X0109648Y0088274D02*
X0115048Y0088274D01*
X0115109Y0089272D02*
X0110039Y0089272D01*
X0110039Y0090271D02*
X0116073Y0090271D01*
X0118516Y0090271D02*
X0118516Y0090271D01*
X0118516Y0090345D02*
X0118516Y0088577D01*
X0118516Y0088577D01*
X0118516Y0090345D01*
X0118516Y0089272D02*
X0118516Y0089272D01*
X0120960Y0090271D02*
X0127611Y0090271D01*
X0126813Y0091269D02*
X0109761Y0091269D01*
X0114304Y0092268D02*
X0126014Y0092268D01*
X0125212Y0093266D02*
X0115295Y0093266D01*
X0115295Y0094265D02*
X0124569Y0094265D01*
X0124641Y0095263D02*
X0115295Y0095263D01*
X0115295Y0096262D02*
X0124641Y0096262D01*
X0124641Y0097260D02*
X0115295Y0097260D01*
X0115295Y0098259D02*
X0124641Y0098259D01*
X0124641Y0099257D02*
X0115295Y0099257D01*
X0115295Y0100256D02*
X0124641Y0100256D01*
X0124641Y0101254D02*
X0115204Y0101254D01*
X0113183Y0102253D02*
X0124641Y0102253D01*
X0123942Y0103251D02*
X0114182Y0103251D01*
X0114814Y0104250D02*
X0123641Y0104250D01*
X0123641Y0105248D02*
X0114814Y0105248D01*
X0114814Y0106247D02*
X0124038Y0106247D01*
X0124887Y0107245D02*
X0114243Y0107245D01*
X0113245Y0108244D02*
X0167999Y0108244D01*
X0167999Y0107245D02*
X0128995Y0107245D01*
X0129308Y0102333D02*
X0152594Y0102333D01*
X0152594Y0100977D01*
X0152315Y0100977D01*
X0151433Y0100977D01*
X0151364Y0100959D01*
X0151146Y0101177D01*
X0143249Y0101177D01*
X0143031Y0100959D01*
X0142962Y0100977D01*
X0142079Y0100977D01*
X0141197Y0100977D01*
X0140815Y0100875D01*
X0140800Y0100866D01*
X0140784Y0100875D01*
X0140403Y0100977D01*
X0139520Y0100977D01*
X0138638Y0100977D01*
X0138569Y0100959D01*
X0138350Y0101177D01*
X0133013Y0101177D01*
X0132017Y0100181D01*
X0132017Y0093273D01*
X0132137Y0093153D01*
X0131196Y0093153D01*
X0129241Y0095597D01*
X0129241Y0102266D01*
X0129308Y0102333D01*
X0129241Y0102253D02*
X0152594Y0102253D01*
X0152594Y0101254D02*
X0129241Y0101254D01*
X0129241Y0100256D02*
X0132092Y0100256D01*
X0132017Y0099257D02*
X0129241Y0099257D01*
X0129241Y0098259D02*
X0132017Y0098259D01*
X0132017Y0097260D02*
X0129241Y0097260D01*
X0129241Y0096262D02*
X0132017Y0096262D01*
X0132017Y0095263D02*
X0129508Y0095263D01*
X0130307Y0094265D02*
X0132017Y0094265D01*
X0132024Y0093266D02*
X0131106Y0093266D01*
X0138219Y0092277D02*
X0138350Y0092277D01*
X0138569Y0092495D01*
X0138638Y0092477D01*
X0139520Y0092477D01*
X0139520Y0096727D01*
X0139520Y0096727D01*
X0139520Y0100977D01*
X0139520Y0096727D01*
X0139520Y0096727D01*
X0139520Y0092477D01*
X0140403Y0092477D01*
X0140784Y0092579D01*
X0140800Y0092588D01*
X0140815Y0092579D01*
X0141197Y0092477D01*
X0142079Y0092477D01*
X0142079Y0096727D01*
X0139894Y0096727D01*
X0139520Y0096727D01*
X0142079Y0096727D01*
X0142079Y0096727D01*
X0142079Y0096727D01*
X0142079Y0100977D01*
X0142079Y0096727D01*
X0142079Y0096727D01*
X0142079Y0092477D01*
X0142962Y0092477D01*
X0143031Y0092495D01*
X0143249Y0092277D01*
X0145336Y0092277D01*
X0145336Y0085160D01*
X0138690Y0091806D01*
X0138219Y0092277D01*
X0138228Y0092268D02*
X0145336Y0092268D01*
X0145336Y0091269D02*
X0139227Y0091269D01*
X0138690Y0091806D02*
X0138690Y0091806D01*
X0140225Y0090271D02*
X0145336Y0090271D01*
X0145336Y0089272D02*
X0141224Y0089272D01*
X0142222Y0088274D02*
X0145336Y0088274D01*
X0145336Y0087275D02*
X0143221Y0087275D01*
X0144219Y0086277D02*
X0145336Y0086277D01*
X0145336Y0085278D02*
X0145218Y0085278D01*
X0146958Y0083167D02*
X0151166Y0078960D01*
X0152396Y0077729D01*
X0159536Y0077729D01*
X0164876Y0072390D01*
X0161149Y0072390D01*
X0160997Y0072542D01*
X0161136Y0072877D01*
X0161136Y0074190D01*
X0160634Y0075403D01*
X0159705Y0076331D01*
X0158492Y0076833D01*
X0157179Y0076833D01*
X0155967Y0076331D01*
X0155038Y0075403D01*
X0154536Y0074190D01*
X0154536Y0072877D01*
X0154738Y0072390D01*
X0150926Y0072390D01*
X0150708Y0072171D01*
X0150639Y0072190D01*
X0149756Y0072190D01*
X0148874Y0072190D01*
X0148805Y0072171D01*
X0148587Y0072390D01*
X0144379Y0072390D01*
X0144379Y0076298D01*
X0145611Y0077529D01*
X0146958Y0078877D01*
X0146958Y0083167D01*
X0146958Y0082283D02*
X0147843Y0082283D01*
X0146958Y0081284D02*
X0148841Y0081284D01*
X0149840Y0080286D02*
X0146958Y0080286D01*
X0146958Y0079287D02*
X0150838Y0079287D01*
X0151837Y0078289D02*
X0146370Y0078289D01*
X0145611Y0077529D02*
X0145611Y0077529D01*
X0145371Y0077290D02*
X0159975Y0077290D01*
X0159744Y0076292D02*
X0160974Y0076292D01*
X0160679Y0075293D02*
X0161972Y0075293D01*
X0161092Y0074295D02*
X0162971Y0074295D01*
X0163969Y0073296D02*
X0161136Y0073296D01*
X0155927Y0076292D02*
X0144379Y0076292D01*
X0144379Y0075293D02*
X0154993Y0075293D01*
X0154579Y0074295D02*
X0144379Y0074295D01*
X0144379Y0073296D02*
X0154536Y0073296D01*
X0150834Y0072298D02*
X0148679Y0072298D01*
X0149756Y0072190D02*
X0149756Y0067940D01*
X0149756Y0067940D01*
X0149756Y0072190D01*
X0149756Y0071299D02*
X0149756Y0071299D01*
X0149756Y0070301D02*
X0149756Y0070301D01*
X0149756Y0069302D02*
X0149756Y0069302D01*
X0149756Y0068304D02*
X0149756Y0068304D01*
X0149756Y0067939D02*
X0149756Y0063690D01*
X0149756Y0067939D01*
X0149756Y0067939D01*
X0149756Y0067305D02*
X0149756Y0067305D01*
X0149756Y0066307D02*
X0149756Y0066307D01*
X0149756Y0065308D02*
X0149756Y0065308D01*
X0149756Y0064310D02*
X0149756Y0064310D01*
X0149756Y0063690D02*
X0148874Y0063690D01*
X0148805Y0063708D01*
X0148587Y0063490D01*
X0146838Y0063490D01*
X0146838Y0053201D01*
X0146858Y0053182D01*
X0146858Y0052627D01*
X0147033Y0052102D01*
X0146858Y0051751D01*
X0146858Y0051359D01*
X0146466Y0050967D01*
X0146464Y0050964D01*
X0146464Y0050572D01*
X0146326Y0050433D01*
X0168483Y0050433D01*
X0168336Y0050581D01*
X0163033Y0055883D01*
X0159838Y0055883D01*
X0158586Y0057135D01*
X0158586Y0061531D01*
X0159838Y0062783D01*
X0164234Y0062783D01*
X0165036Y0061981D01*
X0165838Y0062783D01*
X0170234Y0062783D01*
X0171486Y0061531D01*
X0171486Y0059136D01*
X0173189Y0057433D01*
X0197201Y0057433D01*
X0198051Y0058283D01*
X0198516Y0058283D01*
X0193366Y0063433D01*
X0186036Y0063433D01*
X0186036Y0063333D01*
X0182536Y0063333D01*
X0182536Y0062333D01*
X0182536Y0058833D01*
X0184733Y0058833D01*
X0185115Y0058936D01*
X0185457Y0059133D01*
X0185736Y0059412D01*
X0185934Y0059754D01*
X0186036Y0060136D01*
X0186036Y0062333D01*
X0182536Y0062333D01*
X0181536Y0062333D01*
X0181536Y0058833D01*
X0179338Y0058833D01*
X0178957Y0058936D01*
X0178615Y0059133D01*
X0178336Y0059412D01*
X0178138Y0059754D01*
X0178036Y0060136D01*
X0178036Y0062333D01*
X0181536Y0062333D01*
X0181536Y0063333D01*
X0178036Y0063333D01*
X0178036Y0065531D01*
X0178138Y0065912D01*
X0178336Y0066254D01*
X0178615Y0066534D01*
X0178957Y0066731D01*
X0179338Y0066833D01*
X0181536Y0066833D01*
X0181536Y0063333D01*
X0182536Y0063333D01*
X0182536Y0066264D01*
X0181966Y0066833D01*
X0176620Y0066833D01*
X0173698Y0069755D01*
X0171306Y0069755D01*
X0171206Y0069855D01*
X0170055Y0069855D01*
X0170055Y0064485D01*
X0169059Y0063490D01*
X0150926Y0063490D01*
X0150708Y0063708D01*
X0150639Y0063690D01*
X0149756Y0063690D01*
X0146838Y0063311D02*
X0181536Y0063311D01*
X0181536Y0062312D02*
X0182536Y0062312D01*
X0182536Y0061314D02*
X0181536Y0061314D01*
X0181536Y0060315D02*
X0182536Y0060315D01*
X0182536Y0059317D02*
X0181536Y0059317D01*
X0178431Y0059317D02*
X0171486Y0059317D01*
X0171486Y0060315D02*
X0178036Y0060315D01*
X0178036Y0061314D02*
X0171486Y0061314D01*
X0170705Y0062312D02*
X0178036Y0062312D01*
X0182536Y0063311D02*
X0193488Y0063311D01*
X0194487Y0062312D02*
X0186036Y0062312D01*
X0186036Y0061314D02*
X0195485Y0061314D01*
X0196484Y0060315D02*
X0186036Y0060315D01*
X0185641Y0059317D02*
X0197482Y0059317D01*
X0198481Y0058318D02*
X0172303Y0058318D01*
X0165367Y0062312D02*
X0164705Y0062312D01*
X0159367Y0062312D02*
X0146838Y0062312D01*
X0146838Y0061314D02*
X0158586Y0061314D01*
X0158586Y0060315D02*
X0146838Y0060315D01*
X0146838Y0059317D02*
X0158586Y0059317D01*
X0158586Y0058318D02*
X0146838Y0058318D01*
X0146838Y0057320D02*
X0158586Y0057320D01*
X0159400Y0056321D02*
X0146838Y0056321D01*
X0146838Y0055323D02*
X0163594Y0055323D01*
X0164592Y0054324D02*
X0146838Y0054324D01*
X0146838Y0053326D02*
X0165591Y0053326D01*
X0166589Y0052327D02*
X0146958Y0052327D01*
X0146828Y0051329D02*
X0167588Y0051329D01*
X0144658Y0052270D02*
X0144264Y0051483D01*
X0123398Y0051483D01*
X0121036Y0053333D01*
X0121036Y0068333D01*
X0116036Y0073333D01*
X0116036Y0076495D01*
X0115248Y0077283D01*
X0115248Y0079541D01*
X0116009Y0080303D01*
X0118438Y0080303D01*
X0118516Y0080381D01*
X0118516Y0082349D02*
X0121493Y0082349D01*
X0134402Y0069440D01*
X0134402Y0067940D01*
X0136961Y0067940D02*
X0136976Y0067939D01*
X0136990Y0067934D01*
X0137003Y0067927D01*
X0137014Y0067918D01*
X0137023Y0067907D01*
X0137030Y0067894D01*
X0137035Y0067880D01*
X0137036Y0067865D01*
X0137036Y0063664D01*
X0135642Y0062270D01*
X0127099Y0062270D01*
X0126036Y0063333D01*
X0126036Y0073333D01*
X0120957Y0078412D01*
X0118516Y0078412D01*
X0113880Y0081284D02*
X0107945Y0081284D01*
X0109288Y0080286D02*
X0113048Y0080286D01*
X0113048Y0079287D02*
X0109832Y0079287D01*
X0110039Y0078289D02*
X0113048Y0078289D01*
X0113048Y0077290D02*
X0109991Y0077290D01*
X0109577Y0076292D02*
X0113128Y0076292D01*
X0113836Y0075293D02*
X0108673Y0075293D01*
X0107664Y0074295D02*
X0103136Y0074295D01*
X0103136Y0075293D02*
X0104462Y0075293D01*
X0103558Y0076292D02*
X0103136Y0076292D01*
X0103136Y0077290D02*
X0103144Y0077290D01*
X0103136Y0079287D02*
X0103303Y0079287D01*
X0103136Y0080286D02*
X0103846Y0080286D01*
X0103136Y0081284D02*
X0105190Y0081284D01*
X0103136Y0082283D02*
X0114848Y0082283D01*
X0114848Y0083281D02*
X0103136Y0083281D01*
X0103136Y0084280D02*
X0114848Y0084280D01*
X0114848Y0085278D02*
X0103136Y0085278D01*
X0118516Y0086286D02*
X0130721Y0086286D01*
X0136537Y0080470D01*
X0140436Y0080470D01*
X0151510Y0084555D02*
X0151876Y0084403D01*
X0153188Y0084403D01*
X0154401Y0084906D01*
X0155330Y0085834D01*
X0155832Y0087047D01*
X0155832Y0088360D01*
X0155330Y0089573D01*
X0154401Y0090501D01*
X0153188Y0091003D01*
X0152202Y0091003D01*
X0151936Y0091269D01*
X0154447Y0091269D01*
X0154631Y0090271D02*
X0155446Y0090271D01*
X0155454Y0089272D02*
X0156444Y0089272D01*
X0155832Y0088274D02*
X0157443Y0088274D01*
X0158441Y0087275D02*
X0155832Y0087275D01*
X0155513Y0086277D02*
X0159440Y0086277D01*
X0160438Y0085278D02*
X0154774Y0085278D01*
X0151785Y0084280D02*
X0161437Y0084280D01*
X0162435Y0083281D02*
X0152784Y0083281D01*
X0153782Y0082283D02*
X0163434Y0082283D01*
X0164432Y0081284D02*
X0161921Y0081284D01*
X0161276Y0081929D02*
X0154136Y0081929D01*
X0151510Y0084555D01*
X0161276Y0081929D02*
X0169150Y0074055D01*
X0171206Y0074055D01*
X0171306Y0074155D01*
X0171561Y0074155D01*
X0170283Y0075433D01*
X0169979Y0075433D01*
X0168767Y0075936D01*
X0167838Y0076864D01*
X0167336Y0078077D01*
X0167336Y0078381D01*
X0153231Y0092486D01*
X0153198Y0092477D01*
X0152315Y0092477D01*
X0152315Y0096727D01*
X0152315Y0096727D01*
X0152315Y0100977D01*
X0152315Y0096727D01*
X0152315Y0096727D01*
X0152315Y0092477D01*
X0151936Y0092477D01*
X0151936Y0091269D01*
X0151936Y0092268D02*
X0153449Y0092268D01*
X0152315Y0093266D02*
X0152315Y0093266D01*
X0152315Y0094265D02*
X0152315Y0094265D01*
X0152315Y0095263D02*
X0152315Y0095263D01*
X0152315Y0096262D02*
X0152315Y0096262D01*
X0152315Y0097260D02*
X0152315Y0097260D01*
X0152315Y0098259D02*
X0152315Y0098259D01*
X0152315Y0099257D02*
X0152315Y0099257D01*
X0152315Y0100256D02*
X0152315Y0100256D01*
X0154874Y0096727D02*
X0155036Y0096727D01*
X0155036Y0096333D01*
X0154894Y0096475D01*
X0159993Y0096262D02*
X0159993Y0096262D01*
X0159993Y0097260D02*
X0159993Y0097260D01*
X0159993Y0098259D02*
X0159993Y0098259D01*
X0159993Y0099257D02*
X0159993Y0099257D01*
X0159993Y0100256D02*
X0159993Y0100256D01*
X0157194Y0101254D02*
X0168062Y0101254D01*
X0167999Y0102253D02*
X0157194Y0102253D01*
X0157194Y0103251D02*
X0167999Y0103251D01*
X0167999Y0104250D02*
X0157194Y0104250D01*
X0156744Y0105248D02*
X0167999Y0105248D01*
X0167999Y0106247D02*
X0155745Y0106247D01*
X0167999Y0109243D02*
X0103136Y0109243D01*
X0103578Y0108414D02*
X0103578Y0108414D01*
X0103409Y0108244D02*
X0103136Y0108244D01*
X0103136Y0110241D02*
X0168954Y0110241D01*
X0169952Y0111240D02*
X0103136Y0111240D01*
X0103136Y0112238D02*
X0170951Y0112238D01*
X0171949Y0113237D02*
X0103136Y0113237D01*
X0139520Y0100256D02*
X0139520Y0100256D01*
X0139520Y0099257D02*
X0139520Y0099257D01*
X0139520Y0098259D02*
X0139520Y0098259D01*
X0139520Y0097260D02*
X0139520Y0097260D01*
X0139520Y0096727D02*
X0139520Y0096727D01*
X0139520Y0096262D02*
X0139520Y0096262D01*
X0139520Y0095263D02*
X0139520Y0095263D01*
X0139520Y0094265D02*
X0139520Y0094265D01*
X0139520Y0093266D02*
X0139520Y0093266D01*
X0142079Y0093266D02*
X0142079Y0093266D01*
X0142079Y0094265D02*
X0142079Y0094265D01*
X0142079Y0095263D02*
X0142079Y0095263D01*
X0142079Y0096262D02*
X0142079Y0096262D01*
X0142079Y0097260D02*
X0142079Y0097260D01*
X0142079Y0098259D02*
X0142079Y0098259D01*
X0142079Y0099257D02*
X0142079Y0099257D01*
X0142079Y0100256D02*
X0142079Y0100256D01*
X0159993Y0095263D02*
X0159993Y0095263D01*
X0159993Y0094265D02*
X0159993Y0094265D01*
X0159993Y0093266D02*
X0159993Y0093266D01*
X0159954Y0092268D02*
X0163732Y0092268D01*
X0164730Y0091269D02*
X0160953Y0091269D01*
X0161951Y0090271D02*
X0165729Y0090271D01*
X0166727Y0089272D02*
X0162950Y0089272D01*
X0163948Y0088274D02*
X0167726Y0088274D01*
X0168724Y0087275D02*
X0164947Y0087275D01*
X0165945Y0086277D02*
X0169723Y0086277D01*
X0170721Y0085278D02*
X0166944Y0085278D01*
X0167942Y0084280D02*
X0171720Y0084280D01*
X0172718Y0083281D02*
X0168941Y0083281D01*
X0169939Y0082283D02*
X0173717Y0082283D01*
X0172752Y0081284D02*
X0174715Y0081284D01*
X0175714Y0080286D02*
X0173565Y0080286D01*
X0173936Y0079287D02*
X0176712Y0079287D01*
X0173936Y0078289D02*
X0187367Y0078289D01*
X0187367Y0077290D02*
X0174932Y0077290D01*
X0175930Y0076292D02*
X0178090Y0076292D01*
X0171422Y0074295D02*
X0168911Y0074295D01*
X0167912Y0075293D02*
X0170423Y0075293D01*
X0168411Y0076292D02*
X0166914Y0076292D01*
X0167662Y0077290D02*
X0165915Y0077290D01*
X0164917Y0078289D02*
X0167336Y0078289D01*
X0166429Y0079287D02*
X0163918Y0079287D01*
X0162920Y0080286D02*
X0165431Y0080286D01*
X0181656Y0087883D02*
X0183906Y0085633D01*
X0187367Y0085633D01*
X0187367Y0087153D01*
X0187664Y0087449D01*
X0187567Y0087808D01*
X0187567Y0088451D01*
X0192020Y0088451D01*
X0192020Y0088451D01*
X0187567Y0088451D01*
X0187567Y0089094D01*
X0187696Y0089576D01*
X0187946Y0090008D01*
X0188298Y0090360D01*
X0188730Y0090610D01*
X0189212Y0090739D01*
X0192020Y0090739D01*
X0192020Y0088452D01*
X0192020Y0088452D01*
X0192020Y0090739D01*
X0194829Y0090739D01*
X0194850Y0090733D01*
X0195056Y0090939D01*
X0196468Y0090939D01*
X0196711Y0091524D01*
X0197080Y0092076D01*
X0197549Y0092546D01*
X0198101Y0092914D01*
X0198379Y0093029D01*
X0197910Y0093224D01*
X0197336Y0093607D01*
X0196854Y0094089D01*
X0196645Y0093584D01*
X0196330Y0093113D01*
X0195930Y0092712D01*
X0195458Y0092397D01*
X0194934Y0092180D01*
X0194378Y0092070D01*
X0193217Y0092070D01*
X0193217Y0096219D01*
X0192217Y0096219D01*
X0192217Y0092070D01*
X0191056Y0092070D01*
X0190500Y0092180D01*
X0189976Y0092397D01*
X0189504Y0092712D01*
X0189104Y0093113D01*
X0188789Y0093584D01*
X0188572Y0094108D01*
X0188461Y0094664D01*
X0188461Y0096106D01*
X0187796Y0095440D01*
X0187834Y0095403D01*
X0188336Y0094190D01*
X0188336Y0092877D01*
X0187834Y0091664D01*
X0186905Y0090736D01*
X0185692Y0090233D01*
X0184379Y0090233D01*
X0183986Y0090396D01*
X0183986Y0089135D01*
X0182734Y0087883D01*
X0181656Y0087883D01*
X0182264Y0087275D02*
X0187489Y0087275D01*
X0187567Y0088274D02*
X0183124Y0088274D01*
X0183986Y0089272D02*
X0187615Y0089272D01*
X0188209Y0090271D02*
X0185783Y0090271D01*
X0184289Y0090271D02*
X0183986Y0090271D01*
X0187439Y0091269D02*
X0196605Y0091269D01*
X0197271Y0092268D02*
X0195146Y0092268D01*
X0196433Y0093266D02*
X0197846Y0093266D01*
X0201067Y0092825D02*
X0201067Y0088558D01*
X0202067Y0088558D01*
X0202067Y0092825D01*
X0201567Y0092825D01*
X0201567Y0096325D01*
X0201567Y0096325D01*
X0196067Y0096325D01*
X0196067Y0096219D01*
X0193217Y0096219D01*
X0193217Y0097219D01*
X0196177Y0097219D01*
X0196067Y0096670D01*
X0196067Y0096326D01*
X0201567Y0096326D01*
X0201567Y0096325D01*
X0201567Y0092825D01*
X0201067Y0092825D01*
X0201067Y0092268D02*
X0202067Y0092268D01*
X0202067Y0091269D02*
X0201067Y0091269D01*
X0201067Y0090271D02*
X0202067Y0090271D01*
X0202067Y0089272D02*
X0201067Y0089272D01*
X0201067Y0087558D02*
X0202067Y0087558D01*
X0202067Y0082818D01*
X0202067Y0079109D01*
X0201067Y0079109D01*
X0201067Y0087558D01*
X0201067Y0087275D02*
X0202067Y0087275D01*
X0202067Y0086277D02*
X0201067Y0086277D01*
X0201067Y0085278D02*
X0202067Y0085278D01*
X0202067Y0084280D02*
X0201067Y0084280D01*
X0201067Y0083281D02*
X0202067Y0083281D01*
X0202067Y0082283D02*
X0201067Y0082283D01*
X0201067Y0081284D02*
X0202067Y0081284D01*
X0202067Y0080286D02*
X0201067Y0080286D01*
X0201067Y0079287D02*
X0202067Y0079287D01*
X0202067Y0078109D02*
X0202067Y0073841D01*
X0201567Y0073841D01*
X0201067Y0073841D01*
X0201067Y0078109D01*
X0202067Y0078109D01*
X0202067Y0077290D02*
X0201067Y0077290D01*
X0201067Y0076292D02*
X0202067Y0076292D01*
X0202067Y0075293D02*
X0201067Y0075293D01*
X0201067Y0074295D02*
X0202067Y0074295D01*
X0201567Y0073841D02*
X0201567Y0070341D01*
X0196067Y0070341D01*
X0196067Y0069996D01*
X0196177Y0069448D01*
X0193217Y0069448D01*
X0193217Y0070447D01*
X0196067Y0070447D01*
X0196067Y0070341D01*
X0201567Y0070341D01*
X0201567Y0070341D01*
X0201567Y0070341D01*
X0201567Y0066841D01*
X0199223Y0066841D01*
X0198546Y0066976D01*
X0197910Y0067240D01*
X0197336Y0067623D01*
X0196973Y0067986D01*
X0196973Y0067892D01*
X0196862Y0067336D01*
X0196645Y0066813D01*
X0196357Y0066382D01*
X0204456Y0058283D01*
X0206736Y0058283D01*
X0206736Y0068845D01*
X0206669Y0068683D01*
X0206286Y0068110D01*
X0205799Y0067623D01*
X0205225Y0067240D01*
X0204588Y0066976D01*
X0203912Y0066841D01*
X0201567Y0066841D01*
X0201567Y0070341D01*
X0201567Y0073841D01*
X0201567Y0073296D02*
X0201567Y0073296D01*
X0201567Y0072298D02*
X0201567Y0072298D01*
X0201567Y0071299D02*
X0201567Y0071299D01*
X0201567Y0070341D02*
X0201567Y0070341D01*
X0201567Y0070301D02*
X0201567Y0070301D01*
X0201567Y0069302D02*
X0201567Y0069302D01*
X0201567Y0068304D02*
X0201567Y0068304D01*
X0201567Y0067305D02*
X0201567Y0067305D01*
X0197812Y0067305D02*
X0196849Y0067305D01*
X0196433Y0066307D02*
X0206736Y0066307D01*
X0206736Y0067305D02*
X0205323Y0067305D01*
X0206415Y0068304D02*
X0206736Y0068304D01*
X0206736Y0065308D02*
X0197431Y0065308D01*
X0198430Y0064310D02*
X0206736Y0064310D01*
X0206736Y0063311D02*
X0199428Y0063311D01*
X0200427Y0062312D02*
X0206736Y0062312D01*
X0206736Y0061314D02*
X0201425Y0061314D01*
X0202424Y0060315D02*
X0206736Y0060315D01*
X0206736Y0059317D02*
X0203422Y0059317D01*
X0204421Y0058318D02*
X0206736Y0058318D01*
X0182536Y0064310D02*
X0181536Y0064310D01*
X0181536Y0065308D02*
X0182536Y0065308D01*
X0182493Y0066307D02*
X0181536Y0066307D01*
X0178388Y0066307D02*
X0170055Y0066307D01*
X0170055Y0067305D02*
X0176149Y0067305D01*
X0175150Y0068304D02*
X0170055Y0068304D01*
X0170055Y0069302D02*
X0174152Y0069302D01*
X0174610Y0071955D02*
X0177532Y0069033D01*
X0182736Y0069033D01*
X0185673Y0069066D02*
X0187106Y0067633D01*
X0188513Y0067633D01*
X0188461Y0067892D01*
X0188461Y0069448D01*
X0192217Y0069448D01*
X0192217Y0070447D01*
X0188461Y0070447D01*
X0188461Y0071306D01*
X0187989Y0070833D01*
X0186236Y0070833D01*
X0186236Y0069629D01*
X0185673Y0069066D01*
X0185909Y0069302D02*
X0188461Y0069302D01*
X0188461Y0068304D02*
X0186436Y0068304D01*
X0186236Y0070301D02*
X0192217Y0070301D01*
X0192217Y0070448D02*
X0192217Y0074597D01*
X0191752Y0074597D01*
X0192883Y0075728D01*
X0195446Y0075728D01*
X0196468Y0075728D01*
X0196711Y0075143D01*
X0197080Y0074591D01*
X0197549Y0074121D01*
X0198101Y0073752D01*
X0198379Y0073637D01*
X0197910Y0073443D01*
X0197336Y0073060D01*
X0196854Y0072578D01*
X0196645Y0073082D01*
X0196330Y0073554D01*
X0195930Y0073955D01*
X0195458Y0074270D01*
X0194934Y0074487D01*
X0194378Y0074597D01*
X0193217Y0074597D01*
X0193217Y0070448D01*
X0192217Y0070448D01*
X0192217Y0071299D02*
X0193217Y0071299D01*
X0193217Y0070301D02*
X0196067Y0070301D01*
X0193217Y0072298D02*
X0192217Y0072298D01*
X0192217Y0073296D02*
X0193217Y0073296D01*
X0193217Y0074295D02*
X0192217Y0074295D01*
X0192448Y0075293D02*
X0196648Y0075293D01*
X0197376Y0074295D02*
X0195398Y0074295D01*
X0196503Y0073296D02*
X0197690Y0073296D01*
X0188461Y0071299D02*
X0188454Y0071299D01*
X0186942Y0076292D02*
X0185982Y0076292D01*
X0174610Y0071955D02*
X0172217Y0071955D01*
X0170055Y0065308D02*
X0178036Y0065308D01*
X0178036Y0064310D02*
X0169879Y0064310D01*
X0144638Y0067940D02*
X0144638Y0052290D01*
X0144658Y0052270D01*
X0119929Y0051329D02*
X0110218Y0051329D01*
X0110631Y0052327D02*
X0118931Y0052327D01*
X0118821Y0053326D02*
X0110704Y0053326D01*
X0110555Y0054324D02*
X0118836Y0054324D01*
X0118836Y0055323D02*
X0110134Y0055323D01*
X0109136Y0056321D02*
X0118836Y0056321D01*
X0118836Y0057320D02*
X0103136Y0057320D01*
X0103136Y0058318D02*
X0118836Y0058318D01*
X0118836Y0059317D02*
X0103136Y0059317D01*
X0103136Y0060315D02*
X0118836Y0060315D01*
X0118836Y0061314D02*
X0103136Y0061314D01*
X0103136Y0062312D02*
X0118836Y0062312D01*
X0118836Y0063311D02*
X0103136Y0063311D01*
X0103136Y0064310D02*
X0118836Y0064310D01*
X0118836Y0065308D02*
X0115100Y0065308D01*
X0115295Y0066307D02*
X0118836Y0066307D01*
X0118836Y0067305D02*
X0115295Y0067305D01*
X0115295Y0068304D02*
X0117954Y0068304D01*
X0116956Y0069302D02*
X0115295Y0069302D01*
X0115295Y0070301D02*
X0115957Y0070301D01*
X0106777Y0070301D02*
X0103136Y0070301D01*
X0103136Y0071299D02*
X0106777Y0071299D01*
X0106777Y0072298D02*
X0103136Y0072298D01*
X0103136Y0073296D02*
X0106777Y0073296D01*
X0106777Y0069302D02*
X0103136Y0069302D01*
X0103136Y0068304D02*
X0106777Y0068304D01*
X0106777Y0067305D02*
X0103136Y0067305D01*
X0103136Y0066307D02*
X0106777Y0066307D01*
X0106972Y0065308D02*
X0103136Y0065308D01*
X0103136Y0056321D02*
X0104936Y0056321D01*
X0103937Y0055323D02*
X0103136Y0055323D01*
X0103136Y0054324D02*
X0103517Y0054324D01*
X0103367Y0053326D02*
X0103136Y0053326D01*
X0103136Y0052327D02*
X0103440Y0052327D01*
X0103136Y0051329D02*
X0103854Y0051329D01*
X0183262Y0086277D02*
X0187367Y0086277D01*
X0192020Y0089272D02*
X0192020Y0089272D01*
X0192020Y0090271D02*
X0192020Y0090271D01*
X0192217Y0092268D02*
X0193217Y0092268D01*
X0193217Y0093266D02*
X0192217Y0093266D01*
X0192217Y0094265D02*
X0193217Y0094265D01*
X0193217Y0095263D02*
X0192217Y0095263D01*
X0193217Y0096262D02*
X0196067Y0096262D01*
X0201567Y0096262D02*
X0201567Y0096262D01*
X0201567Y0095263D02*
X0201567Y0095263D01*
X0201567Y0094265D02*
X0201567Y0094265D01*
X0201567Y0093266D02*
X0201567Y0093266D01*
X0190288Y0092268D02*
X0188084Y0092268D01*
X0188336Y0093266D02*
X0189001Y0093266D01*
X0188541Y0094265D02*
X0188305Y0094265D01*
X0188461Y0095263D02*
X0187891Y0095263D01*
X0174136Y0101686D02*
X0172599Y0103223D01*
X0172599Y0107381D01*
X0175220Y0110002D01*
X0175529Y0109692D01*
X0175173Y0109335D01*
X0174918Y0108894D01*
X0174786Y0108401D01*
X0174786Y0107208D01*
X0177661Y0107208D01*
X0177661Y0106458D01*
X0174786Y0106458D01*
X0174786Y0105266D01*
X0174918Y0104773D01*
X0175171Y0104335D01*
X0174638Y0103803D01*
X0174136Y0102590D01*
X0174136Y0101686D01*
X0174136Y0102253D02*
X0173569Y0102253D01*
X0174410Y0103251D02*
X0172599Y0103251D01*
X0172599Y0104250D02*
X0175086Y0104250D01*
X0174791Y0105248D02*
X0172599Y0105248D01*
X0172599Y0106247D02*
X0174786Y0106247D01*
X0174786Y0107245D02*
X0172599Y0107245D01*
X0173462Y0108244D02*
X0174786Y0108244D01*
X0174461Y0109243D02*
X0175119Y0109243D01*
X0180542Y0109692D02*
X0181486Y0110635D01*
X0181486Y0114233D01*
X0191503Y0114233D01*
X0181303Y0104033D01*
X0180601Y0104033D01*
X0180899Y0104331D01*
X0181154Y0104773D01*
X0181286Y0105266D01*
X0181286Y0106458D01*
X0178411Y0106458D01*
X0178411Y0107208D01*
X0181286Y0107208D01*
X0181286Y0108401D01*
X0181154Y0108894D01*
X0180899Y0109335D01*
X0180542Y0109692D01*
X0180952Y0109243D02*
X0186512Y0109243D01*
X0187511Y0110241D02*
X0181091Y0110241D01*
X0181486Y0111240D02*
X0188509Y0111240D01*
X0189508Y0112238D02*
X0181486Y0112238D01*
X0181486Y0113237D02*
X0190506Y0113237D01*
X0185514Y0108244D02*
X0181286Y0108244D01*
X0181286Y0107245D02*
X0184515Y0107245D01*
X0183517Y0106247D02*
X0181286Y0106247D01*
X0181281Y0105248D02*
X0182518Y0105248D01*
X0181520Y0104250D02*
X0180818Y0104250D01*
X0178036Y0106833D02*
X0178086Y0107133D01*
X0178217Y0107133D01*
X0178217Y0107133D01*
X0128410Y0089272D02*
X0121923Y0089272D01*
D25*
X0183554Y0112470D03*
D26*
X0163949Y0105026D03*
X0142689Y0090459D03*
X0130091Y0081010D03*
X0191902Y0060144D03*
D27*
X0199836Y0055133D02*
X0172236Y0055133D01*
X0168036Y0059333D01*
X0163036Y0059133D02*
X0170636Y0051533D01*
X0207836Y0051533D01*
X0209036Y0052733D01*
X0209036Y0095933D01*
X0203836Y0101133D01*
X0190236Y0101133D01*
X0183836Y0094733D01*
X0185036Y0093533D01*
X0183836Y0094733D02*
X0180636Y0091533D01*
X0180636Y0091933D02*
X0170299Y0102270D01*
X0170299Y0108333D01*
X0174799Y0112833D01*
X0178036Y0112833D01*
X0183554Y0112470D02*
X0184028Y0111997D01*
X0178865Y0106833D01*
X0178036Y0106833D01*
X0184028Y0111325D02*
X0184028Y0111997D01*
X0195861Y0110733D02*
X0200236Y0110733D01*
X0195861Y0110733D02*
X0182661Y0097533D01*
X0180636Y0097533D01*
X0170436Y0078533D02*
X0155036Y0093933D01*
X0154894Y0096475D02*
X0154894Y0103845D01*
X0154107Y0104633D01*
X0126941Y0104633D01*
X0126941Y0094790D01*
X0130091Y0090853D01*
X0136390Y0090853D01*
X0144658Y0082585D01*
X0144658Y0079829D01*
X0142079Y0077251D01*
X0142079Y0067940D01*
X0170436Y0078533D02*
X0175836Y0073133D01*
X0181836Y0073133D01*
X0182236Y0073133D02*
X0187036Y0073133D01*
X0191836Y0077933D01*
X0130091Y0081010D02*
X0126934Y0084168D01*
X0126784Y0084318D01*
X0126731Y0084318D01*
X0118516Y0084318D01*
D28*
X0140436Y0080470D03*
X0152532Y0087703D03*
X0170636Y0078733D03*
X0157836Y0073533D03*
X0185036Y0093533D03*
X0177436Y0101933D03*
X0126941Y0104633D03*
M02*
