G75*
%MOIN*%
%OFA0B0*%
%FSLAX25Y25*%
%IPPOS*%
%LPD*%
%AMOC8*
5,1,8,0,0,1.08239X$1,22.5*
%
%ADD10C,0.00800*%
%ADD11C,0.04337*%
%ADD12C,0.04400*%
%ADD13R,0.06306X0.03156*%
%ADD14R,0.02762X0.04337*%
%ADD15R,0.03550X0.04337*%
%ADD16C,0.00000*%
%ADD17C,0.03943*%
D10*
X0101036Y0048333D02*
X0101036Y0116333D01*
X0211036Y0116333D01*
X0211036Y0048333D01*
X0101036Y0048333D01*
D11*
X0127636Y0057733D03*
D12*
X0199567Y0070341D02*
X0203567Y0070341D01*
X0203567Y0096325D02*
X0199567Y0096325D01*
D13*
X0113457Y0092861D03*
X0113457Y0086955D03*
X0113457Y0075144D03*
D14*
X0102630Y0069633D03*
X0102630Y0098373D03*
D15*
X0110898Y0098373D03*
X0110898Y0069633D03*
D16*
X0104795Y0078097D02*
X0104797Y0078181D01*
X0104803Y0078264D01*
X0104813Y0078347D01*
X0104827Y0078430D01*
X0104844Y0078512D01*
X0104866Y0078593D01*
X0104891Y0078672D01*
X0104920Y0078751D01*
X0104953Y0078828D01*
X0104989Y0078903D01*
X0105029Y0078977D01*
X0105072Y0079049D01*
X0105119Y0079118D01*
X0105169Y0079185D01*
X0105222Y0079250D01*
X0105278Y0079312D01*
X0105336Y0079372D01*
X0105398Y0079429D01*
X0105462Y0079482D01*
X0105529Y0079533D01*
X0105598Y0079580D01*
X0105669Y0079625D01*
X0105742Y0079665D01*
X0105817Y0079702D01*
X0105894Y0079736D01*
X0105972Y0079766D01*
X0106051Y0079792D01*
X0106132Y0079815D01*
X0106214Y0079833D01*
X0106296Y0079848D01*
X0106379Y0079859D01*
X0106462Y0079866D01*
X0106546Y0079869D01*
X0106630Y0079868D01*
X0106713Y0079863D01*
X0106797Y0079854D01*
X0106879Y0079841D01*
X0106961Y0079825D01*
X0107042Y0079804D01*
X0107123Y0079780D01*
X0107201Y0079752D01*
X0107279Y0079720D01*
X0107355Y0079684D01*
X0107429Y0079645D01*
X0107501Y0079603D01*
X0107571Y0079557D01*
X0107639Y0079508D01*
X0107704Y0079456D01*
X0107767Y0079401D01*
X0107827Y0079343D01*
X0107885Y0079282D01*
X0107939Y0079218D01*
X0107991Y0079152D01*
X0108039Y0079084D01*
X0108084Y0079013D01*
X0108125Y0078940D01*
X0108164Y0078866D01*
X0108198Y0078790D01*
X0108229Y0078712D01*
X0108256Y0078633D01*
X0108280Y0078552D01*
X0108299Y0078471D01*
X0108315Y0078389D01*
X0108327Y0078306D01*
X0108335Y0078222D01*
X0108339Y0078139D01*
X0108339Y0078055D01*
X0108335Y0077972D01*
X0108327Y0077888D01*
X0108315Y0077805D01*
X0108299Y0077723D01*
X0108280Y0077642D01*
X0108256Y0077561D01*
X0108229Y0077482D01*
X0108198Y0077404D01*
X0108164Y0077328D01*
X0108125Y0077254D01*
X0108084Y0077181D01*
X0108039Y0077110D01*
X0107991Y0077042D01*
X0107939Y0076976D01*
X0107885Y0076912D01*
X0107827Y0076851D01*
X0107767Y0076793D01*
X0107704Y0076738D01*
X0107639Y0076686D01*
X0107571Y0076637D01*
X0107501Y0076591D01*
X0107429Y0076549D01*
X0107355Y0076510D01*
X0107279Y0076474D01*
X0107201Y0076442D01*
X0107123Y0076414D01*
X0107042Y0076390D01*
X0106961Y0076369D01*
X0106879Y0076353D01*
X0106797Y0076340D01*
X0106713Y0076331D01*
X0106630Y0076326D01*
X0106546Y0076325D01*
X0106462Y0076328D01*
X0106379Y0076335D01*
X0106296Y0076346D01*
X0106214Y0076361D01*
X0106132Y0076379D01*
X0106051Y0076402D01*
X0105972Y0076428D01*
X0105894Y0076458D01*
X0105817Y0076492D01*
X0105742Y0076529D01*
X0105669Y0076569D01*
X0105598Y0076614D01*
X0105529Y0076661D01*
X0105462Y0076712D01*
X0105398Y0076765D01*
X0105336Y0076822D01*
X0105278Y0076882D01*
X0105222Y0076944D01*
X0105169Y0077009D01*
X0105119Y0077076D01*
X0105072Y0077145D01*
X0105029Y0077217D01*
X0104989Y0077291D01*
X0104953Y0077366D01*
X0104920Y0077443D01*
X0104891Y0077522D01*
X0104866Y0077601D01*
X0104844Y0077682D01*
X0104827Y0077764D01*
X0104813Y0077847D01*
X0104803Y0077930D01*
X0104797Y0078013D01*
X0104795Y0078097D01*
X0104795Y0089908D02*
X0104797Y0089992D01*
X0104803Y0090075D01*
X0104813Y0090158D01*
X0104827Y0090241D01*
X0104844Y0090323D01*
X0104866Y0090404D01*
X0104891Y0090483D01*
X0104920Y0090562D01*
X0104953Y0090639D01*
X0104989Y0090714D01*
X0105029Y0090788D01*
X0105072Y0090860D01*
X0105119Y0090929D01*
X0105169Y0090996D01*
X0105222Y0091061D01*
X0105278Y0091123D01*
X0105336Y0091183D01*
X0105398Y0091240D01*
X0105462Y0091293D01*
X0105529Y0091344D01*
X0105598Y0091391D01*
X0105669Y0091436D01*
X0105742Y0091476D01*
X0105817Y0091513D01*
X0105894Y0091547D01*
X0105972Y0091577D01*
X0106051Y0091603D01*
X0106132Y0091626D01*
X0106214Y0091644D01*
X0106296Y0091659D01*
X0106379Y0091670D01*
X0106462Y0091677D01*
X0106546Y0091680D01*
X0106630Y0091679D01*
X0106713Y0091674D01*
X0106797Y0091665D01*
X0106879Y0091652D01*
X0106961Y0091636D01*
X0107042Y0091615D01*
X0107123Y0091591D01*
X0107201Y0091563D01*
X0107279Y0091531D01*
X0107355Y0091495D01*
X0107429Y0091456D01*
X0107501Y0091414D01*
X0107571Y0091368D01*
X0107639Y0091319D01*
X0107704Y0091267D01*
X0107767Y0091212D01*
X0107827Y0091154D01*
X0107885Y0091093D01*
X0107939Y0091029D01*
X0107991Y0090963D01*
X0108039Y0090895D01*
X0108084Y0090824D01*
X0108125Y0090751D01*
X0108164Y0090677D01*
X0108198Y0090601D01*
X0108229Y0090523D01*
X0108256Y0090444D01*
X0108280Y0090363D01*
X0108299Y0090282D01*
X0108315Y0090200D01*
X0108327Y0090117D01*
X0108335Y0090033D01*
X0108339Y0089950D01*
X0108339Y0089866D01*
X0108335Y0089783D01*
X0108327Y0089699D01*
X0108315Y0089616D01*
X0108299Y0089534D01*
X0108280Y0089453D01*
X0108256Y0089372D01*
X0108229Y0089293D01*
X0108198Y0089215D01*
X0108164Y0089139D01*
X0108125Y0089065D01*
X0108084Y0088992D01*
X0108039Y0088921D01*
X0107991Y0088853D01*
X0107939Y0088787D01*
X0107885Y0088723D01*
X0107827Y0088662D01*
X0107767Y0088604D01*
X0107704Y0088549D01*
X0107639Y0088497D01*
X0107571Y0088448D01*
X0107501Y0088402D01*
X0107429Y0088360D01*
X0107355Y0088321D01*
X0107279Y0088285D01*
X0107201Y0088253D01*
X0107123Y0088225D01*
X0107042Y0088201D01*
X0106961Y0088180D01*
X0106879Y0088164D01*
X0106797Y0088151D01*
X0106713Y0088142D01*
X0106630Y0088137D01*
X0106546Y0088136D01*
X0106462Y0088139D01*
X0106379Y0088146D01*
X0106296Y0088157D01*
X0106214Y0088172D01*
X0106132Y0088190D01*
X0106051Y0088213D01*
X0105972Y0088239D01*
X0105894Y0088269D01*
X0105817Y0088303D01*
X0105742Y0088340D01*
X0105669Y0088380D01*
X0105598Y0088425D01*
X0105529Y0088472D01*
X0105462Y0088523D01*
X0105398Y0088576D01*
X0105336Y0088633D01*
X0105278Y0088693D01*
X0105222Y0088755D01*
X0105169Y0088820D01*
X0105119Y0088887D01*
X0105072Y0088956D01*
X0105029Y0089028D01*
X0104989Y0089102D01*
X0104953Y0089177D01*
X0104920Y0089254D01*
X0104891Y0089333D01*
X0104866Y0089412D01*
X0104844Y0089493D01*
X0104827Y0089575D01*
X0104813Y0089658D01*
X0104803Y0089741D01*
X0104797Y0089824D01*
X0104795Y0089908D01*
D17*
X0106567Y0089908D03*
X0106567Y0078097D03*
M02*
